<svg id="visual" viewBox="0 0 900 600" width="900" height="600" xmlns="http://www.w3.org/2000/svg" xmlns:xlink="http://www.w3.org/1999/xlink" version="1.1"><rect x="0" y="0" width="900" height="600" fill="#94c9f2"></rect><defs><linearGradient id="grad1_0" x1="33.3%" y1="100%" x2="100%" y2="0%"><stop offset="20%" stop-color="#94c9f2" stop-opacity="1"></stop><stop offset="80%" stop-color="#94c9f2" stop-opacity="1"></stop></linearGradient></defs><defs><linearGradient id="grad2_0" x1="0%" y1="100%" x2="66.7%" y2="0%"><stop offset="20%" stop-color="#94c9f2" stop-opacity="1"></stop><stop offset="80%" stop-color="#94c9f2" stop-opacity="1"></stop></linearGradient></defs><g transform="translate(900, 600)"><path d="M-486.7 0C-484 -66.7 -481.2 -133.3 -449.7 -186.3C-418.2 -239.2 -357.9 -278.5 -304.1 -304.1C-250.2 -329.6 -202.7 -341.4 -153.1 -369.6C-103.5 -397.7 -51.7 -442.2 0 -486.7L0 0Z" fill="#e1f8c8"></path></g><g transform="translate(0, 0)"><path d="M486.7 0C466.8 60.1 446.9 120.2 421.3 174.5C395.7 228.8 364.4 277.5 326 326C287.5 374.5 241.8 422.9 186.3 449.7C130.7 476.5 65.4 481.6 0 486.7L0 0Z" fill="#e1f8c8"></path></g></svg>