<svg id="visual" viewBox="0 0 900 600" width="900" height="600" xmlns="http://www.w3.org/2000/svg" xmlns:xlink="http://www.w3.org/1999/xlink" version="1.1"><rect x="0" y="0" width="900" height="600" fill="#f0fbe3"></rect><path d="M129 0L158.3 14.3C187.7 28.7 246.3 57.3 271.7 85.8C297 114.3 289 142.7 275.2 171.2C261.3 199.7 241.7 228.3 233.7 257C225.7 285.7 229.3 314.3 232.3 343C235.3 371.7 237.7 400.3 219.3 428.8C201 457.3 162 485.7 176 514.2C190 542.7 257 571.3 290.5 585.7L324 600L0 600L0 585.7C0 571.3 0 542.7 0 514.2C0 485.7 0 457.3 0 428.8C0 400.3 0 371.7 0 343C0 314.3 0 285.7 0 257C0 228.3 0 199.7 0 171.2C0 142.7 0 114.3 0 85.8C0 57.3 0 28.7 0 14.3L0 0Z" fill="#c9e4f8" stroke-linecap="round" stroke-linejoin="miter"></path></svg>