<svg id="visual" viewBox="0 0 900 600" width="900" height="600" xmlns="http://www.w3.org/2000/svg" xmlns:xlink="http://www.w3.org/1999/xlink" version="1.1"><rect x="0" y="0" width="900" height="600" fill="#f0fbe3"></rect><path d="M611 600L606 585.7C601 571.3 591 542.7 585.2 514.2C579.3 485.7 577.7 457.3 600.5 428.8C623.3 400.3 670.7 371.7 684.7 343C698.7 314.3 679.3 285.7 658.7 257C638 228.3 616 199.7 602.8 171.2C589.7 142.7 585.3 114.3 613 85.8C640.7 57.3 700.3 28.7 730.2 14.3L760 0L900 0L900 14.3C900 28.7 900 57.3 900 85.8C900 114.3 900 142.7 900 171.2C900 199.7 900 228.3 900 257C900 285.7 900 314.3 900 343C900 371.7 900 400.3 900 428.8C900 457.3 900 485.7 900 514.2C900 542.7 900 571.3 900 585.7L900 600Z" fill="#c9e4f8" stroke-linecap="round" stroke-linejoin="miter"></path></svg>